<?xml version="1.0" encoding="UTF-8"?>
<svg xmlns="http://www.w3.org/2000/svg" xmlns:xlink="http://www.w3.org/1999/xlink" width="632px" height="399px" viewBox="0 0 632 399">
  <!-- Generator: Sketch 51 (57462) - http://www.bohemiancoding.com/sketch -->
  <title>Group 12 Copy 3</title>
  <desc>Created with Sketch.</desc>
  <defs></defs>
  <g id="Exports" stroke="none" stroke-width="1" fill="none" fill-rule="evenodd">
    <g id="Group-12-Copy-3" transform="translate(0.421875, -0.007812)">
      <rect id="Rectangle-3-Copy-10" fill="#F4F5F7" x="0" y="0.566664483" width="631.042969" height="397.945054" rx="8"></rect>
      <path d="M49.872,48.7226893 L49.872,51.8546893 C48.396,52.8266893 46.056,53.2586893 43.608,53.2586893 C35.832,53.2586893 31.44,48.5786893 31.44,41.1266893 C31.44,33.9266893 35.832,28.8866893 43.536,28.8866893 C45.84,28.8866893 48.144,29.3186893 49.836,30.5426893 L49.836,33.6746893 C48.144,32.5946893 46.272,32.0186893 43.536,32.0186893 C37.992,32.0186893 34.68,35.6906893 34.68,41.1266893 C34.68,46.5626893 38.1,50.1626893 43.716,50.1626893 C46.2,50.1626893 48.144,49.5866893 49.872,48.7226893 Z M69.6,42.3506893 L69.6,52.8986893 L66.504,52.8986893 L66.504,42.8906893 C66.504,39.1826893 65.208,37.3466893 62.256,37.3466893 C59.376,37.3466893 57.396,39.2546893 57.396,42.8906893 L57.396,52.8986893 L54.3,52.8986893 L54.3,27.3746893 L57.396,27.3746893 L57.396,37.8866893 C58.584,35.7626893 60.744,34.5386893 63.336,34.5386893 C67.368,34.5386893 69.6,37.2746893 69.6,42.3506893 Z M75.972,43.8986893 C75.972,48.2186893 77.7,50.3786893 80.904,50.3786893 C83.676,50.3786893 86.16,48.6146893 86.16,44.6186893 L86.16,43.1786893 C86.16,39.1826893 83.892,37.4186893 81.264,37.4186893 C77.772,37.4186893 75.972,39.7226893 75.972,43.8986893 Z M86.16,52.8986893 L86.16,49.6586893 C85.008,52.0346893 82.848,53.2586893 80.076,53.2586893 C75.288,53.2586893 72.876,49.1906893 72.876,43.8986893 C72.876,38.8226893 75.396,34.5386893 80.436,34.5386893 C83.064,34.5386893 85.08,35.7266893 86.16,38.0666893 L86.16,34.8986893 L89.256,34.8986893 L89.256,52.8986893 L86.16,52.8986893 Z M96.96,42.2786893 L96.96,52.8986893 L93.936,52.8986893 L93.936,34.8986893 L96.96,34.8986893 L96.96,38.0666893 C98.004,35.9426893 99.804,34.4306893 103.332,34.6466893 L103.332,37.6706893 C99.372,37.2746893 96.96,38.4626893 96.96,42.2786893 Z M112.404,52.8626893 C112.152,52.9346893 111.612,53.0066893 110.82,53.0066893 C107.868,53.0066893 105.996,51.6026893 105.996,48.2906893 L105.996,27.3746893 L109.092,27.3746893 L109.092,47.9306893 C109.092,49.5506893 110.172,50.1266893 111.504,50.1266893 C111.828,50.1266893 112.044,50.1266893 112.404,50.0906893 L112.404,52.8626893 Z M114.816,30.1466893 C114.816,28.7786893 115.716,27.9866893 116.976,27.9866893 C118.236,27.9866893 119.136,28.7786893 119.136,30.1466893 C119.136,31.5146893 118.236,32.3066893 116.976,32.3066893 C115.716,32.3066893 114.816,31.5146893 114.816,30.1466893 Z M115.392,52.8986893 L115.392,34.8986893 L118.488,34.8986893 L118.488,52.8986893 L115.392,52.8986893 Z M130.44,37.3466893 C127.164,37.3466893 125.508,39.4706893 125.184,42.6026893 L135.228,42.6026893 C135.048,39.2546893 133.536,37.3466893 130.44,37.3466893 Z M137.352,52.1786893 C135.876,52.9706893 133.608,53.2586893 131.772,53.2586893 C125.04,53.2586893 122.088,49.3706893 122.088,43.8626893 C122.088,38.4266893 125.112,34.5386893 130.584,34.5386893 C136.128,34.5386893 138.36,38.3906893 138.36,43.8626893 L138.36,45.2666893 L125.22,45.2666893 C125.652,48.3266893 127.632,50.3066893 131.88,50.3066893 C133.968,50.3066893 135.732,49.9106893 137.352,49.3346893 L137.352,52.1786893 Z M163.992,46.3826893 C163.992,50.4866893 161.544,53.2586893 155.676,53.2586893 C151.104,53.2586893 148.98,52.3586893 147.144,51.4226893 L147.144,48.1106893 C149.34,49.2626893 152.724,50.0906893 155.856,50.0906893 C159.42,50.0906893 160.752,48.6866893 160.752,46.5986893 C160.752,44.5106893 159.456,43.3946893 154.956,42.3146893 C149.628,41.0186893 147.252,39.1826893 147.252,35.2946893 C147.252,31.6226893 150.06,28.8866893 155.568,28.8866893 C158.988,28.8866893 161.184,29.7146893 162.804,30.6146893 L162.804,33.8546893 C160.428,32.4866893 157.872,32.0546893 155.424,32.0546893 C152.328,32.0546893 150.492,33.1346893 150.492,35.2946893 C150.492,37.2386893 152.004,38.2106893 156.18,39.2546893 C161.184,40.5146893 163.992,42.1346893 163.992,46.3826893 Z M169.824,43.8986893 C169.824,48.2186893 171.552,50.3786893 174.756,50.3786893 C177.528,50.3786893 180.012,48.6146893 180.012,44.6186893 L180.012,43.1786893 C180.012,39.1826893 177.744,37.4186893 175.116,37.4186893 C171.624,37.4186893 169.824,39.7226893 169.824,43.8986893 Z M180.012,52.8986893 L180.012,49.6586893 C178.86,52.0346893 176.7,53.2586893 173.928,53.2586893 C169.14,53.2586893 166.728,49.1906893 166.728,43.8986893 C166.728,38.8226893 169.248,34.5386893 174.288,34.5386893 C176.916,34.5386893 178.932,35.7266893 180.012,38.0666893 L180.012,34.8986893 L183.108,34.8986893 L183.108,52.8986893 L180.012,52.8986893 Z M203.088,42.3506893 L203.088,52.8986893 L199.992,52.8986893 L199.992,42.0266893 C199.992,38.7866893 198.696,37.3466893 195.744,37.3466893 C192.864,37.3466893 190.884,39.2546893 190.884,42.8906893 L190.884,52.8986893 L187.788,52.8986893 L187.788,34.8986893 L190.884,34.8986893 L190.884,37.8506893 C192.036,35.7266893 194.16,34.5386893 196.572,34.5386893 C200.712,34.5386893 203.088,37.3826893 203.088,42.3506893 Z M219.828,48.0026893 C219.828,50.9906893 217.884,53.2586893 213.06,53.2586893 C210.36,53.2586893 208.164,52.6466893 206.796,51.9266893 L206.796,48.6506893 C208.344,49.5506893 210.936,50.4146893 213.204,50.4146893 C215.58,50.4146893 216.804,49.4426893 216.804,48.0386893 C216.804,46.6706893 215.76,45.8786893 212.34,45.0506893 C208.344,44.0786893 206.652,42.5306893 206.652,39.5786893 C206.652,36.4466893 209.064,34.5386893 213.168,34.5386893 C215.508,34.5386893 217.632,35.1146893 218.964,35.8346893 L218.964,39.0386893 C216.804,37.9586893 215.04,37.3826893 213.132,37.3826893 C210.864,37.3826893 209.64,38.1746893 209.64,39.5786893 C209.64,40.8386893 210.504,41.6306893 213.816,42.4226893 C217.812,43.3946893 219.828,44.8706893 219.828,48.0026893 Z M238.944,32.3426893 L233.616,32.3426893 L233.616,49.8026893 L239.124,49.8026893 C244.524,49.8026893 247.224,46.9586893 247.224,41.2346893 C247.224,35.4746893 244.668,32.3426893 238.944,32.3426893 Z M230.376,52.8986893 L230.376,29.2466893 L239.088,29.2466893 C246.756,29.2466893 250.464,34.0346893 250.464,41.1266893 C250.464,48.2906893 246.72,52.8986893 239.088,52.8986893 L230.376,52.8986893 Z M253.668,30.1466893 C253.668,28.7786893 254.568,27.9866893 255.828,27.9866893 C257.088,27.9866893 257.988,28.7786893 257.988,30.1466893 C257.988,31.5146893 257.088,32.3066893 255.828,32.3066893 C254.568,32.3066893 253.668,31.5146893 253.668,30.1466893 Z M254.244,52.8986893 L254.244,34.8986893 L257.34,34.8986893 L257.34,52.8986893 L254.244,52.8986893 Z M274.44,48.0026893 C274.44,50.9906893 272.496,53.2586893 267.672,53.2586893 C264.972,53.2586893 262.776,52.6466893 261.408,51.9266893 L261.408,48.6506893 C262.956,49.5506893 265.548,50.4146893 267.816,50.4146893 C270.192,50.4146893 271.416,49.4426893 271.416,48.0386893 C271.416,46.6706893 270.372,45.8786893 266.952,45.0506893 C262.956,44.0786893 261.264,42.5306893 261.264,39.5786893 C261.264,36.4466893 263.676,34.5386893 267.78,34.5386893 C270.12,34.5386893 272.244,35.1146893 273.576,35.8346893 L273.576,39.0386893 C271.416,37.9586893 269.652,37.3826893 267.744,37.3826893 C265.476,37.3826893 264.252,38.1746893 264.252,39.5786893 C264.252,40.8386893 265.116,41.6306893 268.428,42.4226893 C272.424,43.3946893 274.44,44.8706893 274.44,48.0026893 Z M291.288,43.8986893 C291.288,39.5786893 289.56,37.4186893 286.356,37.4186893 C283.584,37.4186893 281.1,39.1826893 281.1,43.1786893 L281.1,44.6186893 C281.1,48.6146893 283.368,50.3786893 285.996,50.3786893 C289.488,50.3786893 291.288,48.0746893 291.288,43.8986893 Z M286.824,53.2586893 C284.196,53.2586893 282.18,52.0706893 281.1,49.7306893 L281.1,59.9186893 L278.004,59.9186893 L278.004,34.8986893 L281.1,34.8986893 L281.1,38.1386893 C282.252,35.7626893 284.412,34.5386893 287.184,34.5386893 C291.972,34.5386893 294.384,38.6066893 294.384,43.8986893 C294.384,48.9746893 291.864,53.2586893 286.824,53.2586893 Z M304.392,52.8626893 C304.14,52.9346893 303.6,53.0066893 302.808,53.0066893 C299.856,53.0066893 297.984,51.6026893 297.984,48.2906893 L297.984,27.3746893 L301.08,27.3746893 L301.08,47.9306893 C301.08,49.5506893 302.16,50.1266893 303.492,50.1266893 C303.816,50.1266893 304.032,50.1266893 304.392,50.0906893 L304.392,52.8626893 Z M309.396,43.8986893 C309.396,48.2186893 311.124,50.3786893 314.328,50.3786893 C317.1,50.3786893 319.584,48.6146893 319.584,44.6186893 L319.584,43.1786893 C319.584,39.1826893 317.316,37.4186893 314.688,37.4186893 C311.196,37.4186893 309.396,39.7226893 309.396,43.8986893 Z M319.584,52.8986893 L319.584,49.6586893 C318.432,52.0346893 316.272,53.2586893 313.5,53.2586893 C308.712,53.2586893 306.3,49.1906893 306.3,43.8986893 C306.3,38.8226893 308.82,34.5386893 313.86,34.5386893 C316.488,34.5386893 318.504,35.7266893 319.584,38.0666893 L319.584,34.8986893 L322.68,34.8986893 L322.68,52.8986893 L319.584,52.8986893 Z M333.876,51.7466893 L331.86,51.7466893 L325.344,34.8986893 L328.656,34.8986893 L334.416,50.3066893 L340.176,34.8986893 L343.488,34.8986893 L336.684,52.3226893 C334.668,57.4706893 333.516,60.1346893 328.944,60.1346893 C327.396,60.1346893 326.532,59.9906893 325.632,59.6306893 L325.632,56.9666893 C326.676,57.2906893 327.864,57.3986893 328.764,57.3986893 C331.284,57.3986893 332.4,55.6706893 333.876,51.7466893 Z M50.556,124.866689 L50.556,127.854689 C49.08,128.826689 46.704,129.294689 44.256,129.294689 C36.48,129.294689 32.088,124.578689 32.088,117.126689 C32.088,109.926689 36.48,104.850689 44.184,104.850689 C46.488,104.850689 48.828,105.318689 50.52,106.542689 L50.52,109.674689 C48.792,108.630689 46.848,108.054689 44.328,108.054689 C38.712,108.054689 35.4,111.726689 35.4,117.126689 C35.4,122.598689 38.82,126.198689 44.364,126.198689 C46.848,126.198689 48.828,125.730689 50.556,124.866689 Z M71.796,119.070689 L71.796,128.898689 L68.628,128.898689 L68.628,119.214689 C68.628,115.938689 67.332,114.462689 64.56,114.462689 C61.572,114.462689 59.592,116.262689 59.592,119.718689 L59.592,128.898689 L56.424,128.898689 L56.424,103.374689 L59.592,103.374689 L59.592,115.254689 C60.744,112.914689 63.012,111.582689 65.568,111.582689 C69.708,111.582689 71.796,114.318689 71.796,119.070689 Z M80.112,120.402689 C80.112,124.506689 81.948,126.414689 85.116,126.414689 C87.852,126.414689 90.228,124.578689 90.228,120.474689 L90.228,119.862689 C90.228,116.190689 87.852,114.426689 85.08,114.426689 C81.876,114.426689 80.112,116.586689 80.112,120.402689 Z M90.228,128.898689 L90.228,125.370689 C89.148,127.926689 87.024,129.258689 84.36,129.258689 C79.356,129.258689 76.944,125.442689 76.944,120.402689 C76.944,115.650689 79.464,111.582689 84.432,111.582689 C87.204,111.582689 89.22,112.878689 90.228,115.398689 L90.228,111.942689 L93.396,111.942689 L93.396,128.898689 L90.228,128.898689 Z M102.936,120.798689 L102.936,128.898689 L99.768,128.898689 L99.768,111.942689 L102.936,111.942689 L102.936,115.974689 C103.908,113.346689 105.456,111.474689 108.804,111.690689 L108.804,114.966689 C105.096,114.678689 102.936,115.938689 102.936,120.798689 Z M119.568,128.862689 C119.28,128.934689 118.74,129.006689 117.84,129.006689 C114.924,129.006689 113.052,127.530689 113.052,124.110689 L113.052,103.374689 L116.22,103.374689 L116.22,123.894689 C116.22,125.478689 117.084,126.054689 118.272,126.054689 C118.812,126.054689 119.1,126.054689 119.568,125.982689 L119.568,128.862689 Z M122.952,106.470689 C122.952,105.066689 123.888,104.310689 125.184,104.310689 C126.444,104.310689 127.38,105.066689 127.38,106.470689 C127.38,107.874689 126.444,108.630689 125.184,108.630689 C123.888,108.630689 122.952,107.874689 122.952,106.470689 Z M123.564,128.898689 L123.564,111.942689 L126.732,111.942689 L126.732,128.898689 L123.564,128.898689 Z M140.484,114.066689 C137.1,114.066689 135.48,116.442689 135.3,119.718689 C137.28,119.502689 140.304,119.358689 142.212,119.358689 L145.236,119.358689 C145.092,115.974689 143.616,114.066689 140.484,114.066689 Z M147.432,128.286689 C145.956,129.006689 143.688,129.258689 141.42,129.258689 C135.084,129.258689 132.096,125.586689 132.096,120.402689 C132.096,115.290689 135.156,111.582689 140.628,111.582689 C146.208,111.582689 148.44,115.254689 148.44,120.402689 L148.44,121.482689 L143.148,121.482689 C140.484,121.482689 137.82,121.410689 135.3,121.266689 C135.588,124.362689 137.496,126.378689 141.672,126.378689 C143.868,126.378689 145.704,126.126689 147.432,125.550689 L147.432,128.286689 Z M178.32,122.490689 C178.32,126.558689 175.908,129.294689 170.004,129.294689 C166.152,129.294689 163.596,128.466689 161.76,127.602689 L161.76,124.290689 C163.956,125.298689 167.268,126.090689 169.896,126.090689 C173.604,126.090689 175.008,124.722689 175.008,122.598689 C175.008,120.546689 173.82,119.322689 169.176,118.206689 C163.92,117.018689 161.796,114.930689 161.796,111.330689 C161.796,107.514689 164.64,104.850689 170.04,104.850689 C173.28,104.850689 175.584,105.606689 177.204,106.506689 L177.204,109.746689 C174.792,108.486689 172.164,108.018689 169.896,108.018689 C166.872,108.018689 165.108,109.098689 165.108,111.330689 C165.108,113.274689 166.404,114.318689 170.76,115.362689 C175.836,116.586689 178.32,118.530689 178.32,122.490689 Z M185.988,120.402689 C185.988,124.506689 187.824,126.414689 190.992,126.414689 C193.728,126.414689 196.104,124.578689 196.104,120.474689 L196.104,119.862689 C196.104,116.190689 193.728,114.426689 190.956,114.426689 C187.752,114.426689 185.988,116.586689 185.988,120.402689 Z M196.104,128.898689 L196.104,125.370689 C195.024,127.926689 192.9,129.258689 190.236,129.258689 C185.232,129.258689 182.82,125.442689 182.82,120.402689 C182.82,115.650689 185.34,111.582689 190.308,111.582689 C193.08,111.582689 195.096,112.878689 196.104,115.398689 L196.104,111.942689 L199.272,111.942689 L199.272,128.898689 L196.104,128.898689 Z M220.98,119.070689 L220.98,128.898689 L217.812,128.898689 L217.812,119.214689 C217.812,115.938689 216.516,114.462689 213.744,114.462689 C210.756,114.462689 208.776,116.262689 208.776,119.718689 L208.776,128.898689 L205.608,128.898689 L205.608,111.942689 L208.776,111.942689 L208.776,115.254689 C209.928,112.914689 212.196,111.582689 214.752,111.582689 C218.892,111.582689 220.98,114.318689 220.98,119.070689 Z M239.808,124.182689 C239.808,126.990689 237.612,129.258689 232.86,129.258689 C230.016,129.258689 227.712,128.718689 226.308,127.962689 L226.308,125.118689 C227.82,125.910689 230.52,126.630689 232.86,126.630689 C235.452,126.630689 236.748,125.802689 236.748,124.290689 C236.748,122.958689 236.028,122.094689 232.356,121.518689 C228.072,120.906689 226.272,119.502689 226.272,116.514689 C226.272,113.490689 228.756,111.582689 232.968,111.582689 C235.38,111.582689 237.576,112.086689 238.944,112.770689 L238.944,115.614689 C236.784,114.606689 234.84,114.246689 232.824,114.246689 C230.484,114.246689 229.296,115.074689 229.296,116.514689 C229.296,117.738689 230.232,118.494689 233.544,118.962689 C237.828,119.610689 239.808,121.158689 239.808,124.182689 Z M252.192,105.246689 L269.472,105.246689 L269.472,108.306689 L262.488,108.306689 L262.488,128.898689 L259.176,128.898689 L259.176,108.306689 L252.192,108.306689 L252.192,105.246689 Z M280.992,114.066689 C277.608,114.066689 275.988,116.442689 275.808,119.718689 C277.788,119.502689 280.812,119.358689 282.72,119.358689 L285.744,119.358689 C285.6,115.974689 284.124,114.066689 280.992,114.066689 Z M287.94,128.286689 C286.464,129.006689 284.196,129.258689 281.928,129.258689 C275.592,129.258689 272.604,125.586689 272.604,120.402689 C272.604,115.290689 275.664,111.582689 281.136,111.582689 C286.716,111.582689 288.948,115.254689 288.948,120.402689 L288.948,121.482689 L283.656,121.482689 C280.992,121.482689 278.328,121.410689 275.808,121.266689 C276.096,124.362689 278.004,126.378689 282.18,126.378689 C284.376,126.378689 286.212,126.126689 287.94,125.550689 L287.94,128.286689 Z M309.684,128.898689 L305.76,128.898689 L300.72,121.842689 L295.644,128.898689 L291.72,128.898689 L298.56,120.294689 L291.72,111.942689 L295.608,111.942689 L300.72,118.854689 L305.796,111.942689 L309.684,111.942689 L302.844,120.294689 L309.684,128.898689 Z M317.892,123.282689 C317.892,124.974689 318.936,126.126689 320.988,126.126689 C321.744,126.126689 322.536,126.018689 323.112,125.910689 L323.112,128.826689 C322.464,129.006689 321.672,129.114689 320.556,129.114689 C316.668,129.114689 314.796,126.846689 314.796,123.498689 L314.796,114.786689 L311.628,114.786689 L311.628,111.942689 L314.796,111.942689 L314.796,107.406689 L317.892,107.406689 L317.892,111.942689 L323.112,111.942689 L323.112,114.786689 L317.892,114.786689 L317.892,123.282689 Z M31.2480469,197.920174 L34.4296875,197.920174 C34.7285156,200.662361 37.3300781,202.472908 40.9511719,202.472908 C44.3789062,202.472908 46.875,200.662361 46.875,198.166267 C46.875,196.021736 45.3808594,194.703377 41.9707031,193.824471 L38.71875,192.980721 C34.0429688,191.785408 31.96875,189.728767 31.96875,186.283455 C31.96875,182.064705 35.6601562,179.11158 40.9335938,179.11158 C45.9785156,179.11158 49.6347656,182.099861 49.7753906,186.353767 L46.6113281,186.353767 C46.3300781,183.629158 44.1328125,181.959236 40.828125,181.959236 C37.5410156,181.959236 35.2558594,183.664314 35.2558594,186.14283 C35.2558594,188.058846 36.6621094,189.201424 40.1074219,190.097908 L42.7617188,190.801033 C48.0175781,192.119392 50.1445312,194.140877 50.1445312,197.779549 C50.1445312,202.420174 46.4882812,205.320564 40.6523438,205.320564 C35.2734375,205.320564 31.546875,202.402596 31.2480469,197.920174 Z M59.6367188,202.420174 C62.7304688,202.420174 64.9980469,200.416267 64.9980469,197.691658 L64.9980469,196.162361 L60.0410156,196.478767 C57.1933594,196.654549 55.7167969,197.691658 55.7167969,199.519783 C55.7167969,201.277596 57.2460938,202.420174 59.6367188,202.420174 Z M58.9863281,205.074471 C55.1367188,205.074471 52.5878906,202.859627 52.5878906,199.502205 C52.5878906,196.250252 55.0839844,194.334236 59.6894531,194.052986 L64.9980469,193.73658 L64.9980469,192.154549 C64.9980469,189.79908 63.4511719,188.498299 60.65625,188.498299 C58.4589844,188.498299 56.8242188,189.623299 56.4550781,191.416267 L53.5195312,191.416267 C53.6074219,188.217049 56.71875,185.773689 60.6914062,185.773689 C65.1738281,185.773689 68.0566406,188.164314 68.0566406,191.890877 L68.0566406,204.898689 L65.15625,204.898689 L65.15625,201.61158 L65.0859375,201.61158 C64.0136719,203.720955 61.640625,205.074471 58.9863281,205.074471 Z M72.1171875,204.898689 L72.1171875,185.949471 L75,185.949471 L75,189.025642 L75.0703125,189.025642 C76.265625,186.881111 78.3222656,185.773689 81.2578125,185.773689 C85.4238281,185.773689 88.0078125,188.445564 88.0078125,192.752205 L88.0078125,204.898689 L84.9492188,204.898689 L84.9492188,193.279549 C84.9492188,190.185799 83.3320312,188.498299 80.34375,188.498299 C77.2324219,188.498299 75.1757812,190.64283 75.1757812,193.894783 L75.1757812,204.898689 L72.1171875,204.898689 Z M104.232422,204.898689 L101.068359,204.898689 L101.068359,179.533455 L116.466797,179.533455 L116.466797,182.381111 L104.232422,182.381111 L104.232422,191.099861 L115.464844,191.099861 L115.464844,193.912361 L104.232422,193.912361 L104.232422,204.898689 Z M119.683594,204.898689 L119.683594,185.949471 L122.566406,185.949471 L122.566406,189.025642 L122.636719,189.025642 C123.199219,187.039314 125.009766,185.773689 127.224609,185.773689 C127.59375,185.773689 128.138672,185.826424 128.402344,185.896736 L128.402344,188.920174 C128.15625,188.814705 127.347656,188.709236 126.820312,188.709236 C124.359375,188.709236 122.742188,190.502205 122.742188,193.17408 L122.742188,204.898689 L119.683594,204.898689 Z M137.279297,202.420174 C140.373047,202.420174 142.640625,200.416267 142.640625,197.691658 L142.640625,196.162361 L137.683594,196.478767 C134.835938,196.654549 133.359375,197.691658 133.359375,199.519783 C133.359375,201.277596 134.888672,202.420174 137.279297,202.420174 Z M136.628906,205.074471 C132.779297,205.074471 130.230469,202.859627 130.230469,199.502205 C130.230469,196.250252 132.726562,194.334236 137.332031,194.052986 L142.640625,193.73658 L142.640625,192.154549 C142.640625,189.79908 141.09375,188.498299 138.298828,188.498299 C136.101562,188.498299 134.466797,189.623299 134.097656,191.416267 L131.162109,191.416267 C131.25,188.217049 134.361328,185.773689 138.333984,185.773689 C142.816406,185.773689 145.699219,188.164314 145.699219,191.890877 L145.699219,204.898689 L142.798828,204.898689 L142.798828,201.61158 L142.728516,201.61158 C141.65625,203.720955 139.283203,205.074471 136.628906,205.074471 Z M149.759766,204.898689 L149.759766,185.949471 L152.642578,185.949471 L152.642578,189.025642 L152.712891,189.025642 C153.908203,186.881111 155.964844,185.773689 158.900391,185.773689 C163.066406,185.773689 165.650391,188.445564 165.650391,192.752205 L165.650391,204.898689 L162.591797,204.898689 L162.591797,193.279549 C162.591797,190.185799 160.974609,188.498299 157.986328,188.498299 C154.875,188.498299 152.818359,190.64283 152.818359,193.894783 L152.818359,204.898689 L149.759766,204.898689 Z M185.373047,192.119392 L182.367188,192.119392 C181.980469,190.097908 180.292969,188.498299 177.445312,188.498299 C174.140625,188.498299 171.890625,191.240486 171.890625,195.42408 C171.890625,199.730721 174.175781,202.349861 177.480469,202.349861 C180.117188,202.349861 181.875,201.119392 182.402344,198.834236 L185.408203,198.834236 C184.898438,202.525642 181.787109,205.074471 177.462891,205.074471 C172.259766,205.074471 168.779297,201.383064 168.779297,195.42408 C168.779297,189.605721 172.242188,185.773689 177.427734,185.773689 C182.121094,185.773689 184.986328,188.797127 185.373047,192.119392 Z M188.519531,204.898689 L188.519531,185.949471 L191.578125,185.949471 L191.578125,204.898689 L188.519531,204.898689 Z M190.048828,182.890877 C188.994141,182.890877 188.115234,182.011971 188.115234,180.957283 C188.115234,179.885017 188.994141,179.023689 190.048828,179.023689 C191.121094,179.023689 191.982422,179.885017 191.982422,180.957283 C191.982422,182.011971 191.121094,182.890877 190.048828,182.890877 Z M195.585938,191.240486 C195.585938,188.041267 198.486328,185.791267 202.599609,185.791267 C206.449219,185.791267 209.367188,188.094002 209.490234,191.20533 L206.554688,191.20533 C206.361328,189.429939 204.814453,188.322517 202.494141,188.322517 C200.15625,188.322517 198.591797,189.429939 198.591797,191.082283 C198.591797,192.365486 199.611328,193.226814 201.791016,193.771736 L204.673828,194.492439 C208.505859,195.459236 209.876953,196.795174 209.876953,199.554939 C209.876953,202.789314 206.765625,205.074471 202.388672,205.074471 C198.310547,205.074471 195.357422,202.859627 195.058594,199.572517 L198.134766,199.572517 C198.451172,201.506111 200.015625,202.543221 202.599609,202.543221 C205.183594,202.543221 206.800781,201.470955 206.800781,199.765877 C206.800781,198.429939 206.009766,197.726814 203.847656,197.164314 L200.525391,196.302986 C197.203125,195.441658 195.585938,193.771736 195.585938,191.240486 Z M228.861328,192.119392 L225.855469,192.119392 C225.46875,190.097908 223.78125,188.498299 220.933594,188.498299 C217.628906,188.498299 215.378906,191.240486 215.378906,195.42408 C215.378906,199.730721 217.664062,202.349861 220.96875,202.349861 C223.605469,202.349861 225.363281,201.119392 225.890625,198.834236 L228.896484,198.834236 C228.386719,202.525642 225.275391,205.074471 220.951172,205.074471 C215.748047,205.074471 212.267578,201.383064 212.267578,195.42408 C212.267578,189.605721 215.730469,185.773689 220.916016,185.773689 C225.609375,185.773689 228.474609,188.797127 228.861328,192.119392 Z M239.636719,205.074471 C234.310547,205.074471 230.900391,201.295174 230.900391,195.42408 C230.900391,189.535408 234.310547,185.773689 239.636719,185.773689 C244.962891,185.773689 248.373047,189.535408 248.373047,195.42408 C248.373047,201.295174 244.962891,205.074471 239.636719,205.074471 Z M239.636719,202.349861 C243.169922,202.349861 245.261719,199.765877 245.261719,195.42408 C245.261719,191.064705 243.169922,188.498299 239.636719,188.498299 C236.103516,188.498299 234.011719,191.082283 234.011719,195.42408 C234.011719,199.765877 236.121094,202.349861 239.636719,202.349861 Z M263.753906,179.533455 L263.753906,195.793221 C263.753906,199.625252 266.267578,202.402596 270.662109,202.402596 C275.056641,202.402596 277.570312,199.625252 277.570312,195.793221 L277.570312,179.533455 L280.734375,179.533455 L280.734375,196.004158 C280.734375,201.418221 276.955078,205.320564 270.662109,205.320564 C264.369141,205.320564 260.589844,201.418221 260.589844,196.004158 L260.589844,179.533455 L263.753906,179.533455 Z M288.820312,204.898689 L285.65625,204.898689 L285.65625,179.533455 L288.820312,179.533455 L288.820312,204.898689 Z M42.3574219,270.545174 L36.3457031,270.545174 L36.3457031,280.898689 L32.953125,280.898689 L32.953125,255.304939 L41.4257812,255.304939 C44.3086082,255.304939 46.5263594,255.961183 48.0791016,257.273689 C49.6318437,258.586196 50.4082031,260.496333 50.4082031,263.004158 C50.4082031,264.597916 49.9775434,265.986574 49.1162109,267.170174 C48.2548785,268.353773 47.0566483,269.23853 45.5214844,269.824471 L51.5332031,280.687752 L51.5332031,280.898689 L47.9121094,280.898689 L42.3574219,270.545174 Z M36.3457031,267.785408 L41.53125,267.785408 C42.4453171,267.785408 43.2451138,267.659433 43.9306641,267.407478 C44.6162144,267.155524 45.1874977,266.815684 45.6445312,266.387947 C46.1015648,265.960211 46.4443348,265.456309 46.6728516,264.876228 C46.9013683,264.296147 47.015625,263.67213 47.015625,263.004158 C47.015625,262.265873 46.9072276,261.594981 46.6904297,260.991463 C46.4736317,260.387944 46.136721,259.869395 45.6796875,259.435799 C45.222654,259.002203 44.6425816,258.668222 43.9394531,258.433846 C43.2363246,258.199469 42.3984424,258.082283 41.4257812,258.082283 L36.3457031,258.082283 L36.3457031,267.785408 Z M53.765625,271.213142 C53.765625,269.830323 53.9677714,268.550062 54.3720703,267.372322 C54.7763692,266.194582 55.3505822,265.172131 56.0947266,264.304939 C56.8388709,263.437747 57.7441353,262.758067 58.8105469,262.265877 C59.8769585,261.773687 61.072259,261.527596 62.3964844,261.527596 C63.7441474,261.527596 64.9540962,261.773687 66.0263672,262.265877 C67.0986382,262.758067 68.0097619,263.437747 68.7597656,264.304939 C69.5097694,265.172131 70.0839824,266.194582 70.4824219,267.372322 C70.8808614,268.550062 71.0800781,269.830323 71.0800781,271.213142 L71.0800781,271.599861 C71.0800781,272.982681 70.8808614,274.262941 70.4824219,275.440681 C70.0839824,276.618422 69.5097694,277.637943 68.7597656,278.499275 C68.0097619,279.360608 67.1015678,280.034429 66.0351562,280.52076 C64.9687447,281.00709 63.7675848,281.250252 62.4316406,281.250252 C61.0956964,281.250252 59.8945366,281.00709 58.828125,280.52076 C57.7617134,280.034429 56.8535194,279.360608 56.1035156,278.499275 C55.3535119,277.637943 54.7763692,276.618422 54.3720703,275.440681 C53.9677714,274.262941 53.765625,272.982681 53.765625,271.599861 L53.765625,271.213142 Z M57.0351562,271.599861 C57.0351562,272.549085 57.1464833,273.44556 57.3691406,274.289314 C57.591798,275.133069 57.9287087,275.874272 58.3798828,276.512947 C58.8310569,277.151622 59.3935513,277.658453 60.0673828,278.033455 C60.7412143,278.408457 61.5292924,278.595955 62.4316406,278.595955 C63.3222701,278.595955 64.1074185,278.408457 64.7871094,278.033455 C65.4668003,277.658453 66.0292946,277.151622 66.4746094,276.512947 C66.9199241,275.874272 67.2568348,275.133069 67.4853516,274.289314 C67.7138683,273.44556 67.828125,272.549085 67.828125,271.599861 L67.828125,271.213142 C67.828125,270.275638 67.7138683,269.382092 67.4853516,268.532478 C67.2568348,267.682865 66.9169944,266.938732 66.4658203,266.300056 C66.0146462,265.661381 65.4492221,265.151621 64.7695312,264.77076 C64.0898404,264.389898 63.2988326,264.199471 62.3964844,264.199471 C61.5058549,264.199471 60.7265658,264.389898 60.0585938,264.77076 C59.3906217,265.151621 58.8310569,265.661381 58.3798828,266.300056 C57.9287087,266.938732 57.591798,267.682865 57.3691406,268.532478 C57.1464833,269.382092 57.0351562,270.275638 57.0351562,271.213142 L57.0351562,271.599861 Z M91.2597656,271.599861 C91.2597656,272.994399 91.0957048,274.280519 90.7675781,275.45826 C90.4394515,276.636 89.9589875,277.655521 89.3261719,278.516853 C88.6933562,279.378186 87.9199264,280.049078 87.0058594,280.529549 C86.0917923,281.01002 85.048834,281.250252 83.8769531,281.250252 C82.6230406,281.250252 81.5390671,281.030527 80.625,280.591072 C79.7109329,280.151617 78.9375032,279.52174 78.3046875,278.701424 L78.1464844,280.898689 L75.1582031,280.898689 L75.1582031,253.898689 L78.4101562,253.898689 L78.4101562,263.970955 C79.0429719,263.185795 79.804683,262.582285 80.6953125,262.160408 C81.585942,261.738531 82.6347596,261.527596 83.8417969,261.527596 C85.0371154,261.527596 86.094722,261.761968 87.0146484,262.230721 C87.9345749,262.699473 88.7080047,263.358646 89.3349609,264.20826 C89.9619172,265.057873 90.4394515,266.077394 90.7675781,267.266853 C91.0957048,268.456312 91.2597656,269.777588 91.2597656,271.230721 L91.2597656,271.599861 Z M88.0078125,271.230721 C88.0078125,270.281497 87.9199228,269.387951 87.7441406,268.550056 C87.5683585,267.712162 87.2841817,266.976817 86.8916016,266.344002 C86.4990215,265.711186 85.9863313,265.210215 85.3535156,264.841072 C84.7207,264.47193 83.9472702,264.287361 83.0332031,264.287361 C82.4355439,264.287361 81.8964868,264.363532 81.4160156,264.515877 C80.9355445,264.668221 80.5048847,264.879157 80.1240234,265.148689 C79.7431622,265.418222 79.4121108,265.734625 79.1308594,266.097908 C78.849608,266.461191 78.609376,266.853765 78.4101562,267.275642 L78.4101562,275.502205 C78.6210948,275.924082 78.8701158,276.316656 79.1572266,276.679939 C79.4443374,277.043222 79.7783184,277.359625 80.1591797,277.629158 C80.540041,277.898691 80.9707007,278.109626 81.4511719,278.261971 C81.931643,278.414315 82.4707001,278.490486 83.0683594,278.490486 C83.94727,278.490486 84.6972625,278.308847 85.3183594,277.945564 C85.9394562,277.582281 86.4492168,277.090099 86.8476562,276.469002 C87.2460957,275.847905 87.5390616,275.11842 87.7265625,274.280525 C87.9140634,273.44263 88.0078125,272.549085 88.0078125,271.599861 L88.0078125,271.230721 Z M94.4941406,271.213142 C94.4941406,269.830323 94.696287,268.550062 95.1005859,267.372322 C95.5048848,266.194582 96.0790978,265.172131 96.8232422,264.304939 C97.5673865,263.437747 98.4726509,262.758067 99.5390625,262.265877 C100.605474,261.773687 101.800775,261.527596 103.125,261.527596 C104.472663,261.527596 105.682612,261.773687 106.754883,262.265877 C107.827154,262.758067 108.738278,263.437747 109.488281,264.304939 C110.238285,265.172131 110.812498,266.194582 111.210938,267.372322 C111.609377,268.550062 111.808594,269.830323 111.808594,271.213142 L111.808594,271.599861 C111.808594,272.982681 111.609377,274.262941 111.210938,275.440681 C110.812498,276.618422 110.238285,277.637943 109.488281,278.499275 C108.738278,279.360608 107.830083,280.034429 106.763672,280.52076 C105.69726,281.00709 104.4961,281.250252 103.160156,281.250252 C101.824212,281.250252 100.623052,281.00709 99.5566406,280.52076 C98.490229,280.034429 97.582035,279.360608 96.8320312,278.499275 C96.0820275,277.637943 95.5048848,276.618422 95.1005859,275.440681 C94.696287,274.262941 94.4941406,272.982681 94.4941406,271.599861 L94.4941406,271.213142 Z M97.7636719,271.599861 C97.7636719,272.549085 97.8749989,273.44556 98.0976562,274.289314 C98.3203136,275.133069 98.6572243,275.874272 99.1083984,276.512947 C99.5595726,277.151622 100.122067,277.658453 100.795898,278.033455 C101.46973,278.408457 102.257808,278.595955 103.160156,278.595955 C104.050786,278.595955 104.835934,278.408457 105.515625,278.033455 C106.195316,277.658453 106.75781,277.151622 107.203125,276.512947 C107.64844,275.874272 107.98535,275.133069 108.213867,274.289314 C108.442384,273.44556 108.556641,272.549085 108.556641,271.599861 L108.556641,271.213142 C108.556641,270.275638 108.442384,269.382092 108.213867,268.532478 C107.98535,267.682865 107.64551,266.938732 107.194336,266.300056 C106.743162,265.661381 106.177738,265.151621 105.498047,264.77076 C104.818356,264.389898 104.027348,264.199471 103.125,264.199471 C102.234371,264.199471 101.455081,264.389898 100.787109,264.77076 C100.119137,265.151621 99.5595726,265.661381 99.1083984,266.300056 C98.6572243,266.938732 98.3203136,267.682865 98.0976562,268.532478 C97.8749989,269.382092 97.7636719,270.275638 97.7636719,271.213142 L97.7636719,271.599861 Z M120.298828,257.273689 L120.298828,261.879158 L123.849609,261.879158 L123.849609,264.39283 L120.298828,264.39283 L120.298828,276.187752 C120.298828,276.679942 120.357421,277.075446 120.474609,277.374275 C120.591797,277.673105 120.747069,277.904548 120.94043,278.068611 C121.13379,278.232674 121.356444,278.341072 121.608398,278.393806 C121.860353,278.446541 122.121092,278.472908 122.390625,278.472908 C122.660158,278.472908 122.944334,278.446541 123.243164,278.393806 C123.541994,278.341072 123.773437,278.297127 123.9375,278.261971 L123.9375,280.898689 C123.679686,280.969002 123.345705,281.045173 122.935547,281.127205 C122.525389,281.209237 122.027347,281.250252 121.441406,281.250252 C120.843747,281.250252 120.278323,281.165292 119.745117,280.995369 C119.211911,280.825446 118.746096,280.541269 118.347656,280.14283 C117.949217,279.74439 117.632814,279.219982 117.398438,278.569588 C117.164061,277.919194 117.046875,277.119397 117.046875,276.170174 L117.046875,264.39283 L113.583984,264.39283 L113.583984,261.879158 L117.046875,261.879158 L117.046875,257.273689 L120.298828,257.273689 Z M126.785156,271.213142 C126.785156,269.830323 126.987303,268.550062 127.391602,267.372322 C127.7959,266.194582 128.370113,265.172131 129.114258,264.304939 C129.858402,263.437747 130.763667,262.758067 131.830078,262.265877 C132.89649,261.773687 134.09179,261.527596 135.416016,261.527596 C136.763679,261.527596 137.973627,261.773687 139.045898,262.265877 C140.118169,262.758067 141.029293,263.437747 141.779297,264.304939 C142.529301,265.172131 143.103514,266.194582 143.501953,267.372322 C143.900393,268.550062 144.099609,269.830323 144.099609,271.213142 L144.099609,271.599861 C144.099609,272.982681 143.900393,274.262941 143.501953,275.440681 C143.103514,276.618422 142.529301,277.637943 141.779297,278.499275 C141.029293,279.360608 140.121099,280.034429 139.054688,280.52076 C137.988276,281.00709 136.787116,281.250252 135.451172,281.250252 C134.115228,281.250252 132.914068,281.00709 131.847656,280.52076 C130.781245,280.034429 129.873051,279.360608 129.123047,278.499275 C128.373043,277.637943 127.7959,276.618422 127.391602,275.440681 C126.987303,274.262941 126.785156,272.982681 126.785156,271.599861 L126.785156,271.213142 Z M130.054688,271.599861 C130.054688,272.549085 130.166015,273.44556 130.388672,274.289314 C130.611329,275.133069 130.94824,275.874272 131.399414,276.512947 C131.850588,277.151622 132.413083,277.658453 133.086914,278.033455 C133.760746,278.408457 134.548824,278.595955 135.451172,278.595955 C136.341801,278.595955 137.12695,278.408457 137.806641,278.033455 C138.486332,277.658453 139.048826,277.151622 139.494141,276.512947 C139.939455,275.874272 140.276366,275.133069 140.504883,274.289314 C140.7334,273.44556 140.847656,272.549085 140.847656,271.599861 L140.847656,271.213142 C140.847656,270.275638 140.7334,269.382092 140.504883,268.532478 C140.276366,267.682865 139.936526,266.938732 139.485352,266.300056 C139.034177,265.661381 138.468753,265.151621 137.789062,264.77076 C137.109372,264.389898 136.318364,264.199471 135.416016,264.199471 C134.525386,264.199471 133.746097,264.389898 133.078125,264.77076 C132.410153,265.151621 131.850588,265.661381 131.399414,266.300056 C130.94824,266.938732 130.611329,267.682865 130.388672,268.532478 C130.166015,269.382092 130.054688,270.275638 130.054688,271.213142 L130.054688,271.599861 Z M32.1269531,355.879158 L32.1269531,352.398689 C32.5253926,352.750254 33.0029269,353.066657 33.5595703,353.347908 C34.1162137,353.629159 34.7021454,353.866462 35.3173828,354.059822 C35.9326203,354.253182 36.5507781,354.402595 37.171875,354.508064 C37.7929719,354.613534 38.3671849,354.666267 38.8945312,354.666267 C40.7109466,354.666267 42.0673783,354.329357 42.9638672,353.655525 C43.860356,352.981694 44.3085938,352.011977 44.3085938,350.746346 C44.3085938,350.066655 44.1591812,349.474864 43.8603516,348.970955 C43.5615219,348.467046 43.1484401,348.00709 42.6210938,347.591072 C42.0937474,347.175054 41.4697302,346.776621 40.7490234,346.39576 C40.0283167,346.014898 39.2519573,345.613535 38.4199219,345.191658 C37.5410112,344.746343 36.7207069,344.295176 35.9589844,343.838142 C35.1972618,343.381109 34.5351591,342.877208 33.9726562,342.326424 C33.4101534,341.77564 32.967775,341.151622 32.6455078,340.454353 C32.3232406,339.757084 32.1621094,338.93971 32.1621094,338.002205 C32.1621094,336.853762 32.41406,335.854748 32.9179688,335.005135 C33.4218775,334.155521 34.0839803,333.455333 34.9042969,332.904549 C35.7246135,332.353765 36.6591744,331.943613 37.7080078,331.67408 C38.7568412,331.404547 39.8261664,331.269783 40.9160156,331.269783 C43.400403,331.269783 45.2109318,331.568608 46.3476562,332.166267 L46.3476562,335.488533 C44.8593676,334.457278 42.9492304,333.941658 40.6171875,333.941658 C39.972653,333.941658 39.3281282,334.00904 38.6835938,334.143806 C38.0390593,334.278573 37.4648463,334.498297 36.9609375,334.802986 C36.4570287,335.107675 36.0468766,335.500249 35.7304688,335.980721 C35.4140609,336.461192 35.2558594,337.047123 35.2558594,337.738533 C35.2558594,338.383068 35.3759754,338.939703 35.6162109,339.408455 C35.8564465,339.877207 36.2109352,340.304937 36.6796875,340.691658 C37.1484398,341.078379 37.7197232,341.453375 38.3935547,341.816658 C39.0673862,342.179941 39.8437456,342.578375 40.7226562,343.011971 C41.6250045,343.457285 42.4804647,343.926031 43.2890625,344.418221 C44.0976603,344.91041 44.8066376,345.455327 45.4160156,346.052986 C46.0253937,346.650645 46.5087873,347.312748 46.8662109,348.039314 C47.2236346,348.76588 47.4023438,349.597903 47.4023438,350.535408 C47.4023438,351.777602 47.1591821,352.829349 46.6728516,353.690681 C46.186521,354.552014 45.5302776,355.252202 44.7041016,355.791267 C43.8779256,356.330333 42.9257866,356.719977 41.8476562,356.960213 C40.7695259,357.200448 39.6328185,357.320564 38.4375,357.320564 C38.0390605,357.320564 37.5468779,357.288338 36.9609375,357.223885 C36.3749971,357.159431 35.7773468,357.065682 35.1679688,356.942635 C34.5585907,356.819587 33.981448,356.667245 33.4365234,356.485603 C32.8915988,356.303962 32.4550798,356.101815 32.1269531,355.879158 Z M66.5097656,348.619392 L53.8007812,348.619392 C53.8476565,350.623309 54.3867136,352.170168 55.4179688,353.260017 C56.4492239,354.349867 57.8671785,354.894783 59.671875,354.894783 C61.6992289,354.894783 63.5624915,354.226821 65.2617188,352.890877 L65.2617188,355.597908 C63.6796796,356.746351 61.5879036,357.320564 58.9863281,357.320564 C56.4433467,357.320564 54.4453198,356.50319 52.9921875,354.868416 C51.5390552,353.233642 50.8125,350.93386 50.8125,347.969002 C50.8125,345.168207 51.6064374,342.886003 53.1943359,341.122322 C54.7822345,339.358641 56.7538945,338.476814 59.109375,338.476814 C61.4648555,338.476814 63.2871029,339.238525 64.5761719,340.761971 C65.8652408,342.285416 66.5097656,344.400629 66.5097656,347.107674 L66.5097656,348.619392 Z M63.5566406,346.176033 C63.5449218,344.511962 63.1435586,343.217053 62.3525391,342.291267 C61.5615195,341.365482 60.4628977,340.902596 59.0566406,340.902596 C57.6972588,340.902596 56.5429735,341.388919 55.59375,342.36158 C54.6445265,343.334241 54.0585949,344.605713 53.8359375,346.176033 L63.5566406,346.176033 Z M86.2324219,355.457283 C86.2324219,362.066691 83.068391,365.371346 76.7402344,365.371346 C74.5136607,365.371346 72.5683677,364.949475 70.9042969,364.105721 L70.9042969,361.222908 C72.9316508,362.347914 74.8652252,362.910408 76.7050781,362.910408 C81.1347878,362.910408 83.3496094,360.554963 83.3496094,355.844002 L83.3496094,353.875252 L83.2792969,353.875252 C81.9081963,356.172138 79.8457169,357.320564 77.0917969,357.320564 C74.8535044,357.320564 73.0517646,356.520768 71.6865234,354.92115 C70.3212822,353.321533 69.6386719,351.174093 69.6386719,348.478767 C69.6386719,345.420158 70.3740161,342.988542 71.8447266,341.183846 C73.315437,339.379149 75.3281122,338.476814 77.8828125,338.476814 C80.3086059,338.476814 82.107416,339.449461 83.2792969,341.394783 L83.3496094,341.394783 L83.3496094,338.898689 L86.2324219,338.898689 L86.2324219,355.457283 Z M83.3496094,348.760017 L83.3496094,346.105721 C83.3496094,344.676026 82.8662158,343.451429 81.8994141,342.431892 C80.9326124,341.412356 79.7285228,340.902596 78.2871094,340.902596 C76.5058505,340.902596 75.1113332,341.55005 74.1035156,342.844978 C73.0956981,344.139907 72.5917969,345.953365 72.5917969,348.285408 C72.5917969,350.289324 73.0751905,351.891847 74.0419922,353.093025 C75.0087939,354.294203 76.2890545,354.894783 77.8828125,354.894783 C79.5000081,354.894783 80.8154246,354.32057 81.8291016,353.172127 C82.8427785,352.023684 83.3496094,350.552995 83.3496094,348.760017 Z M99.5917969,357.320564 C96.9316273,357.320564 94.8076251,356.479752 93.2197266,354.798103 C91.631828,353.116454 90.8378906,350.886984 90.8378906,348.109627 C90.8378906,345.086174 91.6640542,342.72487 93.3164062,341.025642 C94.9687583,339.326415 97.2011578,338.476814 100.013672,338.476814 C102.697279,338.476814 104.791985,339.302978 106.297852,340.95533 C107.803718,342.607682 108.556641,344.898675 108.556641,347.828377 C108.556641,350.699485 107.745125,352.999267 106.12207,354.727791 C104.499015,356.456315 102.322279,357.320564 99.5917969,357.320564 Z M99.8027344,340.902596 C97.9511626,340.902596 96.4863335,341.532472 95.4082031,342.792244 C94.3300727,344.052016 93.7910156,345.789303 93.7910156,348.004158 C93.7910156,350.136981 94.3359321,351.818605 95.4257812,353.04908 C96.5156304,354.279555 97.9746002,354.894783 99.8027344,354.894783 C101.666025,354.894783 103.098628,354.291273 104.100586,353.084236 C105.102544,351.877199 105.603516,350.160419 105.603516,347.933846 C105.603516,345.683834 105.102544,343.949477 104.100586,342.730721 C103.098628,341.511964 101.666025,340.902596 99.8027344,340.902596 Z M127.628906,348.619392 L114.919922,348.619392 C114.966797,350.623309 115.505854,352.170168 116.537109,353.260017 C117.568365,354.349867 118.986319,354.894783 120.791016,354.894783 C122.81837,354.894783 124.681632,354.226821 126.380859,352.890877 L126.380859,355.597908 C124.79882,356.746351 122.707044,357.320564 120.105469,357.320564 C117.562487,357.320564 115.56446,356.50319 114.111328,354.868416 C112.658196,353.233642 111.931641,350.93386 111.931641,347.969002 C111.931641,345.168207 112.725578,342.886003 114.313477,341.122322 C115.901375,339.358641 117.873035,338.476814 120.228516,338.476814 C122.583996,338.476814 124.406244,339.238525 125.695312,340.761971 C126.984381,342.285416 127.628906,344.400629 127.628906,347.107674 L127.628906,348.619392 Z M124.675781,346.176033 C124.664062,344.511962 124.262699,343.217053 123.47168,342.291267 C122.68066,341.365482 121.582038,340.902596 120.175781,340.902596 C118.816399,340.902596 117.662114,341.388919 116.712891,342.36158 C115.763667,343.334241 115.177735,344.605713 114.955078,346.176033 L124.675781,346.176033 Z M160.675781,346.703377 C160.675781,353.781537 157.482454,357.320564 151.095703,357.320564 C144.978485,357.320564 141.919922,353.916301 141.919922,347.107674 L141.919922,331.691658 L144.873047,331.691658 L144.873047,346.914314 C144.873047,352.082309 147.052713,354.666267 151.412109,354.666267 C155.619162,354.666267 157.722656,352.170199 157.722656,347.177986 L157.722656,331.691658 L160.675781,331.691658 L160.675781,346.703377 Z M169.921875,356.898689 L166.96875,356.898689 L166.96875,331.691658 L169.921875,331.691658 L169.921875,356.898689 Z" id="Charlie-Sans-Display" fill="#091E42"></path>
    </g>
  </g>
</svg>
